<svg id="e2bYvNeMxn81" xmlns="http://www.w3.org/2000/svg" xmlns:xlink="http://www.w3.org/1999/xlink" viewBox="0 0 150 150" shape-rendering="geometricPrecision" text-rendering="geometricPrecision"><g transform="matrix(1.145 0 0 1.145-22.065605-16.514204)"><path d="M0,-41.747812l36.154666,20.873906v41.747812L0,41.747812L-36.154666,20.873906v-41.747812L0,-41.747812Z" transform="matrix(1.568996 0 0 1.568996 84.773449 79.925065)" fill="none" stroke="#cfcfcf" stroke-width="0.5"/><path d="M0,-41.747812l36.154666,20.873906v41.747812L0,41.747812L-36.154666,20.873906v-41.747812L0,-41.747812Z" transform="matrix(1.151858 0 0 1.151858 84.773449 79.925065)" fill="none" stroke="#cfcfcf" stroke-width="0.7"/><path d="M0,-41.747812l36.154666,20.873906v41.747812L0,41.747812L-36.154666,20.873906v-41.747812L0,-41.747812Z" transform="matrix(.711749 0 0 0.711749 84.773449 79.925065)" fill="none" stroke="#cfcfcf" stroke-width="1.2"/><path d="M0,-41.747812l36.154666,20.873906v41.747812L0,41.747812L-36.154666,20.873906v-41.747812L0,-41.747812Z" transform="matrix(.270323 0 0 0.270323 84.773449 79.925065)" fill="none" stroke="#cfcfcf" stroke-width="3"/></g></svg>
